<?xml version="1.0" standalone="no"?>
<!DOCTYPE svg PUBLIC "-//W3C//DTD SVG 20010904//EN"
 "http://www.w3.org/TR/2001/REC-SVG-20010904/DTD/svg10.dtd">
<svg version="1.0" xmlns="http://www.w3.org/2000/svg"
 width="96.000000pt" height="96.000000pt" viewBox="0 0 96.000000 96.000000"
 preserveAspectRatio="xMidYMid meet">
<metadata>
Created by potrace 1.11, written by Peter Selinger 2001-2013
</metadata>
<g transform="translate(0.000000,96.000000) scale(0.100000,-0.100000)"
fill="#000000" stroke="none">
<path d="M305 822 c-119 -56 -188 -196 -181 -366 5 -127 48 -220 131 -286 50
-40 105 -53 187 -46 163 14 291 101 341 232 10 26 27 59 37 75 24 32 25 55 5
89 -7 14 -27 53 -44 88 -48 100 -141 178 -256 214 -16 5 -64 12 -105 14 -59 4
-83 1 -115 -14z m153 -61 c50 -26 76 -55 109 -126 24 -52 28 -72 28 -155 0
-83 -4 -103 -28 -155 -34 -73 -60 -102 -112 -126 -52 -24 -87 -24 -136 1 -85
44 -138 158 -135 291 3 127 58 233 140 270 52 24 87 24 134 0z m205 -90 c34
-32 77 -104 77 -129 0 -5 9 -19 20 -32 23 -27 26 -46 6 -53 -7 -3 -22 -31 -31
-61 -19 -60 -78 -137 -124 -160 l-27 -14 29 57 c58 119 60 272 3 396 -29 63
-25 63 47 -4z"/>
<path d="M347 707 c-16 -11 -16 -16 10 -75 15 -34 31 -62 34 -62 3 0 19 28 34
62 26 59 27 62 9 75 -23 16 -65 17 -87 0z"/>
<path d="M267 614 c-9 -21 -19 -54 -22 -71 l-5 -33 51 0 c57 0 57 -2 15 94
l-22 49 -17 -39z"/>
<path d="M471 592 c-13 -31 -25 -63 -28 -69 -4 -10 9 -13 46 -13 l52 0 -7 38
c-6 34 -31 102 -37 102 -1 0 -13 -26 -26 -58z"/>
<path d="M244 427 c8 -44 29 -107 36 -107 6 0 60 113 60 126 0 2 -23 4 -50 4
-47 0 -50 -2 -46 -23z"/>
<path d="M440 445 c0 -3 12 -35 27 -72 l27 -67 17 40 c10 22 21 54 24 72 l5
32 -50 0 c-27 0 -50 -2 -50 -5z"/>
<path d="M356 333 c-27 -63 -27 -67 -10 -80 23 -16 65 -17 87 0 14 11 14 17
-10 72 -13 33 -28 63 -31 67 -4 4 -20 -23 -36 -59z"/>
</g>
</svg>
